<svg xmlns="http://www.w3.org/2000/svg" version="1.1" xmlns:xlink="http://www.w3.org/1999/xlink" xmlns:svgjs="http://svgjs.dev/svgjs" width="2000" height="910" viewBox="0 0 2000 910"><g transform="matrix(1,0,0,1,0.3398876404492057,1.2835493827162168)"><svg viewBox="0 0 356 162" data-background-color="#ffffff" preserveAspectRatio="xMidYMid meet" height="910" width="2000" xmlns="http://www.w3.org/2000/svg" xmlns:xlink="http://www.w3.org/1999/xlink"><g id="tight-bounds" transform="matrix(1,0,0,1,-0.06049999999996203,-0.22850000000002524)"><svg viewBox="0 0 356.12052 162.45653040662643" height="162.45653040662643" width="356.12052"><g><svg viewBox="0 0 356.12052 162.45653040662643" height="162.45653040662643" width="356.12052"><g><svg viewBox="0 0 356.12052 162.45653040662643" height="162.45653040662643" width="356.12052"><g><path d="M0 162.457v-162.457h356.121v162.457z" fill="#6b7280" stroke="transparent" stroke-width="0" rx="0%" data-fill-palette-color="tertiary"></path><path d="M3.283 159.173v-155.89h349.554v155.89z" fill="#ffffff" stroke="transparent" stroke-width="0" rx="0%" data-fill-palette-color="quaternary"></path><path d="M9.85 152.607v-142.757h336.421v142.757z" fill="#6b7280" stroke="transparent" stroke-width="0" data-fill-palette-color="tertiary"></path></g><g transform="matrix(1,0,0,1,19.69974,19.69974)" id="textblocktransform"><svg viewBox="0 0 316.72104 123.05705040662644" height="123.05705040662644" width="316.72104" id="textblock"><g><svg viewBox="0 0 316.72104 95.24436188055908" height="95.24436188055908" width="316.72104"><g transform="matrix(1,0,0,1,0,0)"><svg width="316.72104" viewBox="1.75 -34.9 118.04 35.5" height="95.24436188055908" data-palette-color="#ffffff"><path d="M9.4 0L9.4-2.3 14.15-2.3 14.15-32.45 5.35-32.45 5.35-26.5 1.75-26.5 1.75-34.9 30.85-34.9 30.85-26.5 27.25-26.5 27.25-32.45 18.45-32.45 18.45-2.3 23.2-2.3 23.2 0 9.4 0ZM44.45-1.85L44.45-1.85Q46.3-1.85 47.67-2.48 49.05-3.1 49.92-4.23 50.8-5.35 51.22-6.88 51.65-8.4 51.65-10.2L51.65-10.2 51.65-15.6Q51.65-17.4 51.22-18.93 50.8-20.45 49.92-21.58 49.05-22.7 47.67-23.33 46.3-23.95 44.45-23.95L44.45-23.95Q42.55-23.95 41.2-23.33 39.85-22.7 38.97-21.58 38.1-20.45 37.67-18.93 37.25-17.4 37.25-15.6L37.25-15.6 37.25-10.2Q37.25-8.4 37.67-6.88 38.1-5.35 38.97-4.23 39.85-3.1 41.2-2.48 42.55-1.85 44.45-1.85ZM44.45 0.6L44.45 0.6Q41.8 0.6 39.6-0.35 37.4-1.3 35.85-3.08 34.3-4.85 33.45-7.33 32.6-9.8 32.6-12.9L32.6-12.9Q32.6-15.95 33.45-18.45 34.3-20.95 35.85-22.73 37.4-24.5 39.6-25.45 41.8-26.4 44.45-26.4L44.45-26.4Q47.1-26.4 49.3-25.45 51.5-24.5 53.05-22.73 54.6-20.95 55.45-18.45 56.3-15.95 56.3-12.9L56.3-12.9Q56.3-9.8 55.45-7.33 54.6-4.85 53.05-3.08 51.5-1.3 49.3-0.35 47.1 0.6 44.45 0.6ZM61.3 0L61.3-2.3 65.05-2.3 65.05-32.6 61.3-32.6 61.3-34.9 75.9-34.9Q79.34-34.9 82.2-33.83 85.05-32.75 87.07-30.58 89.09-28.4 90.22-25.13 91.34-21.85 91.34-17.45L91.34-17.45Q91.34-13.05 90.22-9.78 89.09-6.5 87.07-4.33 85.05-2.15 82.2-1.07 79.34 0 75.9 0L75.9 0 61.3 0ZM69.34-32.45L69.34-2.45 75.45-2.45Q78-2.45 80.07-3.33 82.15-4.2 83.57-5.78 85-7.35 85.77-9.55 86.55-11.75 86.55-14.45L86.55-14.45 86.55-20.45Q86.55-23.15 85.77-25.35 85-27.55 83.57-29.13 82.15-30.7 80.07-31.58 78-32.45 75.45-32.45L75.45-32.45 69.34-32.45ZM107.94-1.85L107.94-1.85Q109.79-1.85 111.17-2.48 112.54-3.1 113.42-4.23 114.29-5.35 114.72-6.88 115.14-8.4 115.14-10.2L115.14-10.2 115.14-15.6Q115.14-17.4 114.72-18.93 114.29-20.45 113.42-21.58 112.54-22.7 111.17-23.33 109.79-23.95 107.94-23.95L107.94-23.95Q106.04-23.95 104.69-23.33 103.34-22.7 102.47-21.58 101.59-20.45 101.17-18.93 100.74-17.4 100.74-15.6L100.74-15.6 100.74-10.2Q100.74-8.4 101.17-6.88 101.59-5.35 102.47-4.23 103.34-3.1 104.69-2.48 106.04-1.85 107.94-1.85ZM107.94 0.6L107.94 0.6Q105.29 0.6 103.09-0.35 100.89-1.3 99.34-3.08 97.79-4.85 96.94-7.33 96.09-9.8 96.09-12.9L96.09-12.9Q96.09-15.95 96.94-18.45 97.79-20.95 99.34-22.73 100.89-24.5 103.09-25.45 105.29-26.4 107.94-26.4L107.94-26.4Q110.59-26.4 112.79-25.45 114.99-24.5 116.54-22.73 118.09-20.95 118.94-18.45 119.79-15.95 119.79-12.9L119.79-12.9Q119.79-9.8 118.94-7.33 118.09-4.85 116.54-3.08 114.99-1.3 112.79-0.35 110.59 0.6 107.94 0.6Z" opacity="1" transform="matrix(1,0,0,1,0,0)" fill="#ffffff" class="wordmark-text-0" data-fill-palette-color="quaternary" id="text-0"></path></svg></g></svg></g><g transform="matrix(1,0,0,1,0,101.81094188055908)"><svg viewBox="0 0 316.72104 21.24610852606737" height="21.24610852606737" width="316.72104"><g transform="matrix(1,0,0,1,0,0)"><svg width="316.72104" viewBox="1.8 -35 699.09 46.9" height="21.24610852606737" data-palette-color="#ffffff"><path d="M18.6-34.3Q23.95-34.3 28.45-32.38 32.95-30.45 35.63-26.58 38.3-22.7 38.3-17.15L38.3-17.15Q38.3-11.6 35.63-7.73 32.95-3.85 28.45-1.93 23.95 0 18.6 0L18.6 0 1.8 0 1.8-4.15 8.25-4.15 8.25-30.15 1.8-30.15 1.8-34.3 18.6-34.3ZM18.1-4.15Q24.5-4.15 28.7-7.33 32.9-10.5 32.9-17.15L32.9-17.15Q32.9-23.85 28.7-27 24.5-30.15 18.1-30.15L18.1-30.15 13.4-30.15 13.4-4.15 18.1-4.15ZM55.9 0.7Q52.45 0.7 49.45-0.85 46.45-2.4 44.67-5.25 42.9-8.1 42.9-11.75L42.9-11.75Q42.9-15.45 44.67-18.28 46.45-21.1 49.45-22.65 52.45-24.2 55.9-24.2L55.9-24.2Q59.3-24.2 62.27-22.65 65.25-21.1 67.05-18.25 68.85-15.4 68.85-11.75L68.85-11.75Q68.85-8.1 67.1-5.25 65.35-2.4 62.37-0.85 59.4 0.7 55.9 0.7L55.9 0.7ZM55.9-3.25Q58.15-3.25 59.95-4.3 61.75-5.35 62.77-7.28 63.8-9.2 63.8-11.75L63.8-11.75Q63.8-14.3 62.77-16.23 61.75-18.15 59.95-19.2 58.15-20.25 55.9-20.25L55.9-20.25Q52.45-20.25 50.22-17.93 48-15.6 48-11.75L48-11.75Q48-7.9 50.22-5.58 52.45-3.25 55.9-3.25L55.9-3.25ZM109.59-6.7L111.69-3.5Q106.89 0.7 100.74 0.7L100.74 0.7Q97.39 0.7 94.39-0.7 91.39-2.1 89.54-4.8 87.69-7.5 87.69-11.2L87.69-11.2Q87.69-15.15 89.59-18.1 91.49-21.05 94.54-22.63 97.59-24.2 100.94-24.2L100.94-24.2Q103.89-24.2 106.22-23.25 108.54-22.3 109.87-20.6 111.19-18.9 111.19-16.7L111.19-16.7Q111.19-13.4 108.37-11.58 105.54-9.75 101.59-9.75L101.59-9.75Q99.04-9.75 96.84-10.28 94.64-10.8 92.39-11.8L92.39-11.8 92.39-11.35Q92.39-9 93.52-7.2 94.64-5.4 96.54-4.45 98.44-3.5 100.69-3.5L100.69-3.5Q105.79-3.5 109.59-6.7L109.59-6.7ZM101.29-20.3Q98.59-20.3 96.27-18.75 93.94-17.2 92.94-14.55L92.94-14.55Q96.74-13.2 100.54-13.2L100.54-13.2Q103.04-13.2 104.67-14.13 106.29-15.05 106.29-16.7L106.29-16.7Q106.29-18.3 104.89-19.3 103.49-20.3 101.29-20.3L101.29-20.3ZM143.74-23.55L143.74-19.6 139.84-19.6 129.39 0.65 126.89 0.65 116.24-19.6 112.64-19.6 112.64-23.55 125.39-23.55 125.39-19.95 121.44-19.95 128.64-5.45 135.69-19.95 131.64-19.95 131.64-23.55 143.74-23.55ZM167.04-6.7L169.14-3.5Q164.34 0.7 158.19 0.7L158.19 0.7Q154.84 0.7 151.84-0.7 148.84-2.1 146.99-4.8 145.14-7.5 145.14-11.2L145.14-11.2Q145.14-15.15 147.04-18.1 148.94-21.05 151.99-22.63 155.04-24.2 158.39-24.2L158.39-24.2Q161.34-24.2 163.66-23.25 165.99-22.3 167.31-20.6 168.64-18.9 168.64-16.7L168.64-16.7Q168.64-13.4 165.81-11.58 162.99-9.75 159.04-9.75L159.04-9.75Q156.49-9.75 154.29-10.28 152.09-10.8 149.84-11.8L149.84-11.8 149.84-11.35Q149.84-9 150.96-7.2 152.09-5.4 153.99-4.45 155.89-3.5 158.14-3.5L158.14-3.5Q163.24-3.5 167.04-6.7L167.04-6.7ZM158.74-20.3Q156.04-20.3 153.71-18.75 151.39-17.2 150.39-14.55L150.39-14.55Q154.19-13.2 157.99-13.2L157.99-13.2Q160.49-13.2 162.11-14.13 163.74-15.05 163.74-16.7L163.74-16.7Q163.74-18.3 162.34-19.3 160.94-20.3 158.74-20.3L158.74-20.3ZM193.94-24.15L196.04-24.15 196.04-14.15 191.69-14.15 191.69-19.3Q189.74-19.3 187.44-17.85 185.14-16.4 182.69-13.75L182.69-13.75 182.69-3.95 188.04-3.95 188.04 0 172.49 0 172.49-3.95 177.79-3.95 177.79-19.6 172.49-19.6 172.49-23.55 182.69-23.55 182.69-17.65Q185.34-20.7 188.21-22.43 191.09-24.15 193.94-24.15L193.94-24.15ZM229.68-23.55L229.68-19.6 225.98-19.6 216.08 2.6Q213.98 7.25 211.36 9.58 208.73 11.9 205.23 11.9L205.23 11.9Q203.28 11.9 201.71 11.28 200.13 10.65 198.28 9.45L198.28 9.45 200.28 5.7Q202.83 7.55 205.23 7.55L205.23 7.55Q207.38 7.55 209.08 6.18 210.78 4.8 212.08 1.8L212.08 1.8 212.43 1 202.33-19.6 198.43-19.6 198.43-23.55 211.63-23.55 211.63-19.95 207.58-19.95 214.68-4.15 221.63-19.95 217.78-19.95 217.78-23.55 229.68-23.55ZM250.13-5.35L251.83-1.65Q249.98-0.55 248.21 0.05 246.43 0.65 244.13 0.65L244.13 0.65Q240.28 0.65 238-1.78 235.73-4.2 235.73-8.7L235.73-8.7 235.73-19.6 230.48-19.6 230.48-23.55 235.73-23.55 235.73-30.1 240.63-30.1 240.63-23.55 248.43-23.55 248.43-19.6 240.63-19.6 240.63-8.65Q240.63-6.1 241.78-4.9 242.93-3.7 244.88-3.7L244.88-3.7Q246.28-3.7 247.53-4.13 248.78-4.55 250.13-5.35L250.13-5.35ZM282.08-3.95L286.78-3.95 286.78 0 272.88 0 272.88-3.95 277.23-3.95 277.23-13.7Q277.23-16.6 275.85-18.2 274.48-19.8 271.88-19.8L271.88-19.8Q267.83-19.8 262.88-14.3L262.88-14.3 262.88-3.95 267.18-3.95 267.18 0 252.68 0 252.68-3.95 257.98-3.95 257.98-30.35 252.68-30.35 252.68-34.3 262.88-34.3 262.88-18.15Q265.63-21.15 268.2-22.65 270.78-24.15 273.83-24.15L273.83-24.15Q277.88-24.15 279.98-21.58 282.08-19 282.08-13.85L282.08-13.85 282.08-3.95ZM296.07-28.9Q294.48-28.9 293.38-29.75 292.28-30.6 292.28-31.9L292.28-31.9Q292.28-33.25 293.38-34.13 294.48-35 296.07-35L296.07-35Q297.78-35 298.88-34.13 299.98-33.25 299.98-31.9L299.98-31.9Q299.98-30.6 298.88-29.75 297.78-28.9 296.07-28.9L296.07-28.9ZM299.07-3.95L304.43-3.95 304.43 0 288.88 0 288.88-3.95 294.18-3.95 294.18-19.6 288.88-19.6 288.88-23.55 299.07-23.55 299.07-3.95ZM336.17-3.95L340.87-3.95 340.87 0 326.97 0 326.97-3.95 331.32-3.95 331.32-13.7Q331.32-16.45 329.95-18.03 328.57-19.6 326.02-19.6L326.02-19.6Q321.67-19.6 316.82-14.1L316.82-14.1 316.82-3.95 321.17-3.95 321.17 0 306.62 0 306.62-3.95 311.92-3.95 311.92-19.6 306.62-19.6 306.62-23.55 316.82-23.55 316.82-18Q319.62-21.1 322.2-22.63 324.77-24.15 327.72-24.15L327.72-24.15Q331.77-24.15 333.97-21.55 336.17-18.95 336.17-13.85L336.17-13.85 336.17-3.95ZM361.92-4.45Q365.12-4.45 367.09-2.85 369.07-1.25 369.07 1.65L369.07 1.65Q369.07 4.45 366.97 6.55 364.87 8.65 361.32 9.78 357.77 10.9 353.62 10.9L353.62 10.9Q348.57 10.9 345.34 9.03 342.12 7.15 342.12 3.9L342.12 3.9Q342.12 2.45 342.89 1.18 343.67-0.1 344.87-1.05L344.87-1.05Q343.87-1.8 343.34-2.83 342.82-3.85 342.82-5L342.82-5Q342.82-6.85 343.87-8.33 344.92-9.8 346.62-10.8L346.62-10.8Q344.92-12.9 344.92-15.6L344.92-15.6Q344.92-18.3 346.5-20.25 348.07-22.2 350.52-23.2 352.97-24.2 355.52-24.2L355.52-24.2Q358.47-24.2 360.97-23.1L360.97-23.1Q361.87-25.7 363.89-27.05 365.92-28.4 368.72-28.5L368.72-28.5 368.72-24.4Q366.77-24.3 365.44-23.75 364.12-23.2 363.12-21.85L363.12-21.85Q366.22-19.5 366.22-15.75L366.22-15.75Q366.22-13.05 364.67-11.1 363.12-9.15 360.64-8.15 358.17-7.15 355.52-7.15L355.52-7.15Q351.67-7.15 348.62-9.05L348.62-9.05Q347.12-7.7 347.12-6.15L347.12-6.15Q347.12-4.85 348.14-4.13 349.17-3.4 350.97-3.4L350.97-3.4Q352.67-3.4 356.07-3.9L356.07-3.9Q357.42-4.1 358.97-4.28 360.52-4.45 361.92-4.45L361.92-4.45ZM355.57-20.7Q353.12-20.7 351.42-19.28 349.72-17.85 349.72-15.6L349.72-15.6Q349.72-13.35 351.39-12 353.07-10.65 355.57-10.65L355.57-10.65Q358.17-10.65 359.8-12.05 361.42-13.45 361.42-15.75L361.42-15.75Q361.42-18 359.75-19.35 358.07-20.7 355.57-20.7L355.57-20.7ZM354.32 6.85Q356.97 6.85 359.34 6.25 361.72 5.65 363.14 4.53 364.57 3.4 364.57 1.95L364.57 1.95Q364.57-0.6 360.87-0.6L360.87-0.6Q359.87-0.6 358.67-0.45 357.47-0.3 356.32-0.1L356.32-0.1Q354.92 0.15 353.3 0.35 351.67 0.55 350.12 0.55L350.12 0.55Q348.77 0.55 347.37 0.2L347.37 0.2Q346.37 1.35 346.37 2.9L346.37 2.9Q346.37 4.75 348.47 5.8 350.57 6.85 354.32 6.85L354.32 6.85ZM417.01-23.55L417.01-19.6 413.31-19.6 403.42 2.6Q401.31 7.25 398.69 9.58 396.06 11.9 392.56 11.9L392.56 11.9Q390.62 11.9 389.04 11.28 387.46 10.65 385.62 9.45L385.62 9.45 387.62 5.7Q390.17 7.55 392.56 7.55L392.56 7.55Q394.71 7.55 396.42 6.18 398.12 4.8 399.42 1.8L399.42 1.8 399.76 1 389.67-19.6 385.76-19.6 385.76-23.55 398.96-23.55 398.96-19.95 394.92-19.95 402.01-4.15 408.96-19.95 405.12-19.95 405.12-23.55 417.01-23.55ZM431.41 0.7Q427.96 0.7 424.96-0.85 421.96-2.4 420.19-5.25 418.41-8.1 418.41-11.75L418.41-11.75Q418.41-15.45 420.19-18.28 421.96-21.1 424.96-22.65 427.96-24.2 431.41-24.2L431.41-24.2Q434.81-24.2 437.79-22.65 440.76-21.1 442.56-18.25 444.36-15.4 444.36-11.75L444.36-11.75Q444.36-8.1 442.61-5.25 440.86-2.4 437.89-0.85 434.91 0.7 431.41 0.7L431.41 0.7ZM431.41-3.25Q433.66-3.25 435.46-4.3 437.26-5.35 438.29-7.28 439.31-9.2 439.31-11.75L439.31-11.75Q439.31-14.3 438.29-16.23 437.26-18.15 435.46-19.2 433.66-20.25 431.41-20.25L431.41-20.25Q427.96-20.25 425.74-17.93 423.51-15.6 423.51-11.75L423.51-11.75Q423.51-7.9 425.74-5.58 427.96-3.25 431.41-3.25L431.41-3.25ZM477.61-4L478.71-0.45Q477.01 0.5 474.96 0.5L474.96 0.5Q472.61 0.5 471.16-0.9 469.71-2.3 469.51-4.9L469.51-4.9Q467.01-2.15 464.61-0.75 462.21 0.65 459.56 0.65L459.56 0.65Q455.66 0.65 453.54-1.95 451.41-4.55 451.41-9.6L451.41-9.6 451.41-19.6 446.71-19.6 446.71-23.55 456.31-23.55 456.31-9.75Q456.31-6.95 457.49-5.43 458.66-3.9 461.26-3.9L461.26-3.9Q465.11-3.9 469.46-8.75L469.46-8.75 469.46-19.6 465.16-19.6 465.16-23.55 474.36-23.55 474.36-6.05Q474.36-3.6 476.06-3.6L476.06-3.6Q477.06-3.6 477.61-4L477.61-4ZM514.96-24.2Q517.91-24.2 520.41-22.65 522.91-21.1 524.41-18.32 525.91-15.55 525.91-12L525.91-12Q525.91-8.35 524.28-5.45 522.66-2.55 519.86-0.93 517.06 0.7 513.66 0.7L513.66 0.7Q509.21 0.7 505.46-2.7L505.46-2.7 505.46 6.95 510.91 6.95 510.91 10.9 495.41 10.9 495.41 6.95 500.66 6.95 500.66-19.6 495.41-19.6 495.41-23.55 505.46-23.55 505.46-19Q507.41-21.4 509.91-22.8 512.41-24.2 514.96-24.2L514.96-24.2ZM512.61-3.5Q514.96-3.5 516.83-4.58 518.71-5.65 519.76-7.6 520.81-9.55 520.81-12.05L520.81-12.05Q520.81-15.6 518.78-17.82 516.76-20.05 513.61-20.05L513.61-20.05Q511.46-20.05 509.36-18.75 507.26-17.45 505.46-15.15L505.46-15.15 505.46-6.4Q509.06-3.5 512.61-3.5L512.61-3.5ZM550.8-24.15L552.9-24.15 552.9-14.15 548.55-14.15 548.55-19.3Q546.6-19.3 544.3-17.85 542-16.4 539.55-13.75L539.55-13.75 539.55-3.95 544.9-3.95 544.9 0 529.35 0 529.35-3.95 534.65-3.95 534.65-19.6 529.35-19.6 529.35-23.55 539.55-23.55 539.55-17.65Q542.2-20.7 545.08-22.43 547.95-24.15 550.8-24.15L550.8-24.15ZM569.7 0.7Q566.25 0.7 563.25-0.85 560.25-2.4 558.48-5.25 556.7-8.1 556.7-11.75L556.7-11.75Q556.7-15.45 558.48-18.28 560.25-21.1 563.25-22.65 566.25-24.2 569.7-24.2L569.7-24.2Q573.1-24.2 576.07-22.65 579.05-21.1 580.85-18.25 582.65-15.4 582.65-11.75L582.65-11.75Q582.65-8.1 580.9-5.25 579.15-2.4 576.17-0.85 573.2 0.7 569.7 0.7L569.7 0.7ZM569.7-3.25Q571.95-3.25 573.75-4.3 575.55-5.35 576.57-7.28 577.6-9.2 577.6-11.75L577.6-11.75Q577.6-14.3 576.57-16.23 575.55-18.15 573.75-19.2 571.95-20.25 569.7-20.25L569.7-20.25Q566.25-20.25 564.02-17.93 561.8-15.6 561.8-11.75L561.8-11.75Q561.8-7.9 564.02-5.58 566.25-3.25 569.7-3.25L569.7-3.25ZM604.8-24.2Q607.75-24.2 610.25-22.65 612.75-21.1 614.25-18.32 615.75-15.55 615.75-12L615.75-12Q615.75-8.35 614.12-5.45 612.5-2.55 609.7-0.93 606.9 0.7 603.5 0.7L603.5 0.7Q599.05 0.7 595.3-2.7L595.3-2.7 595.3 6.95 600.75 6.95 600.75 10.9 585.25 10.9 585.25 6.95 590.5 6.95 590.5-19.6 585.25-19.6 585.25-23.55 595.3-23.55 595.3-19Q597.25-21.4 599.75-22.8 602.25-24.2 604.8-24.2L604.8-24.2ZM602.45-3.5Q604.8-3.5 606.67-4.58 608.55-5.65 609.6-7.6 610.65-9.55 610.65-12.05L610.65-12.05Q610.65-15.6 608.62-17.82 606.6-20.05 603.45-20.05L603.45-20.05Q601.3-20.05 599.2-18.75 597.1-17.45 595.3-15.15L595.3-15.15 595.3-6.4Q598.9-3.5 602.45-3.5L602.45-3.5ZM632.79 0.7Q629.34 0.7 626.34-0.85 623.34-2.4 621.57-5.25 619.79-8.1 619.79-11.75L619.79-11.75Q619.79-15.45 621.57-18.28 623.34-21.1 626.34-22.65 629.34-24.2 632.79-24.2L632.79-24.2Q636.19-24.2 639.17-22.65 642.14-21.1 643.94-18.25 645.74-15.4 645.74-11.75L645.74-11.75Q645.74-8.1 643.99-5.25 642.24-2.4 639.27-0.85 636.29 0.7 632.79 0.7L632.79 0.7ZM632.79-3.25Q635.04-3.25 636.84-4.3 638.64-5.35 639.67-7.28 640.69-9.2 640.69-11.75L640.69-11.75Q640.69-14.3 639.67-16.23 638.64-18.15 636.84-19.2 635.04-20.25 632.79-20.25L632.79-20.25Q629.34-20.25 627.12-17.93 624.89-15.6 624.89-11.75L624.89-11.75Q624.89-7.9 627.12-5.58 629.34-3.25 632.79-3.25L632.79-3.25ZM661.99-13.9Q666.59-12.65 669.07-10.78 671.54-8.9 671.54-5.75L671.54-5.75Q671.54-2.85 669.09-1.07 666.64 0.7 663.04 0.7L663.04 0.7Q660.54 0.7 658.12-0.18 655.69-1.05 653.79-2.6L653.79-2.6 653.79 0.05 649.99 0.05 649.99-7.6 652.14-7.8Q654.04-5.65 656.92-4.13 659.79-2.6 662.54-2.6L662.54-2.6Q664.39-2.6 665.44-3.3 666.49-4 666.49-5.3L666.49-5.3Q666.49-6.8 664.84-7.78 663.19-8.75 659.44-9.75L659.44-9.75Q654.94-10.95 652.52-12.78 650.09-14.6 650.09-17.55L650.09-17.55Q650.09-19.4 651.12-20.93 652.14-22.45 654.02-23.33 655.89-24.2 658.34-24.2L658.34-24.2Q660.74-24.2 662.92-23.4 665.09-22.6 666.69-21.15L666.69-21.15 666.69-23.55 670.44-23.55 670.44-15.95 668.24-15.7Q666.84-18.05 664.42-19.48 661.99-20.9 659.59-20.9L659.59-20.9Q657.64-20.9 656.39-20.13 655.14-19.35 655.14-18.1L655.14-18.1Q655.14-16.75 656.79-15.83 658.44-14.9 661.99-13.9L661.99-13.9ZM698.79-6.7L700.89-3.5Q696.09 0.7 689.94 0.7L689.94 0.7Q686.59 0.7 683.59-0.7 680.59-2.1 678.74-4.8 676.89-7.5 676.89-11.2L676.89-11.2Q676.89-15.15 678.79-18.1 680.69-21.05 683.74-22.63 686.79-24.2 690.14-24.2L690.14-24.2Q693.09-24.2 695.41-23.25 697.74-22.3 699.06-20.6 700.39-18.9 700.39-16.7L700.39-16.7Q700.39-13.4 697.56-11.58 694.74-9.75 690.79-9.75L690.79-9.75Q688.24-9.75 686.04-10.28 683.84-10.8 681.59-11.8L681.59-11.8 681.59-11.35Q681.59-9 682.71-7.2 683.84-5.4 685.74-4.45 687.64-3.5 689.89-3.5L689.89-3.5Q694.99-3.5 698.79-6.7L698.79-6.7ZM690.49-20.3Q687.79-20.3 685.46-18.75 683.14-17.2 682.14-14.55L682.14-14.55Q685.94-13.2 689.74-13.2L689.74-13.2Q692.24-13.2 693.86-14.13 695.49-15.05 695.49-16.7L695.49-16.7Q695.49-18.3 694.09-19.3 692.69-20.3 690.49-20.3L690.49-20.3Z" opacity="1" transform="matrix(1,0,0,1,0,0)" fill="#ffffff" class="slogan-text-1" data-fill-palette-color="quaternary" id="text-1"></path></svg></g></svg></g></svg></g></svg></g><g></g></svg></g><defs></defs></svg><rect width="356.12052" height="162.45653040662643" fill="none" stroke="none" visibility="hidden"></rect></g></svg></g></svg>